<?xml version="1.0" encoding="iso-8859-1"?>
<!-- Generator: Adobe Illustrator 16.0.0, SVG Export Plug-In . SVG Version: 6.00 Build 0)  -->
<!DOCTYPE svg PUBLIC "-//W3C//DTD SVG 1.1//EN" "http://www.w3.org/Graphics/SVG/1.1/DTD/svg11.dtd">
<svg version="1.1" id="Capa_1" xmlns="http://www.w3.org/2000/svg" xmlns:xlink="http://www.w3.org/1999/xlink" x="0px" y="0px"
	 width="30.954px" height="30.954px" viewBox="0 0 30.954 30.954" style="enable-background:new 0 0 30.954 30.954;"
	 xml:space="preserve">
<g>
	<path d="M27.456,10.189c0,6.973-3.879,12.183-9.595,12.183c-1.918,0-3.725-1.037-4.342-2.216c0,0-1.033,4.096-1.251,4.887
		c-0.771,2.794-3.035,5.59-3.209,5.816c-0.123,0.16-0.396,0.109-0.424-0.1c-0.049-0.357-0.627-3.884,0.053-6.759
		c0.342-1.442,2.288-9.688,2.288-9.688s-0.567-1.133-0.567-2.812c0-2.637,1.527-4.602,3.43-4.602c1.617,0,2.396,1.213,2.396,2.667
		c0,1.626-1.032,4.058-1.567,6.31c-0.445,1.888,0.944,3.425,2.808,3.425c3.366,0,5.637-4.327,5.637-9.452
		c0-3.897-2.625-6.814-7.396-6.814c-5.393,0-8.754,4.023-8.754,8.517c0,1.549,0.459,2.641,1.174,3.484
		c0.328,0.39,0.375,0.546,0.256,0.991c-0.087,0.328-0.279,1.115-0.363,1.427c-0.115,0.452-0.482,0.61-0.89,0.444
		c-2.484-1.014-3.64-3.733-3.64-6.792C3.498,6.057,7.756,0,16.203,0C22.988,0.002,27.456,4.915,27.456,10.189z"/>
</g>
<g>
</g>
<g>
</g>
<g>
</g>
<g>
</g>
<g>
</g>
<g>
</g>
<g>
</g>
<g>
</g>
<g>
</g>
<g>
</g>
<g>
</g>
<g>
</g>
<g>
</g>
<g>
</g>
<g>
</g>
</svg>
